<mxfile host="app.diagrams.net" modified="2022-10-27T04:14:28.663Z" agent="5.0 (Windows NT 10.0; Win64; x64) AppleWebKit/537.36 (KHTML, like Gecko) Chrome/106.0.0.0 Safari/537.36" etag="SUVDWXt7qWM3ys8VlgtI" version="20.5.1" type="github">
  <diagram id="KgMEBC0sdlBk93Yx0QrE" name="Page-1">
    <mxGraphModel dx="1117" dy="611" grid="1" gridSize="10" guides="1" tooltips="1" connect="1" arrows="1" fold="1" page="1" pageScale="1" pageWidth="850" pageHeight="1100" math="0" shadow="0">
      <root>
        <mxCell id="0" />
        <mxCell id="1" parent="0" />
        <mxCell id="iuHLrQCQOeubHeXrkh4j-1" value="&lt;font color=&quot;#3b50a1&quot; size=&quot;1&quot; face=&quot;Comic Sans MS&quot; style=&quot;&quot;&gt;&lt;b style=&quot;font-size: 8px;&quot;&gt;Get all the cards and number them from left to right&lt;/b&gt;&lt;/font&gt;" style="whiteSpace=wrap;html=1;aspect=fixed;rounded=1;fillColor=#dae8fc;strokeColor=#6c8ebf;shadow=0;sketch=0;glass=1;gradientColor=default;" parent="1" vertex="1">
          <mxGeometry x="40" y="50" width="80" height="80" as="geometry" />
        </mxCell>
        <mxCell id="iuHLrQCQOeubHeXrkh4j-12" style="edgeStyle=orthogonalEdgeStyle;shape=flexArrow;curved=1;rounded=1;sketch=0;fillStyle=hatch;orthogonalLoop=1;jettySize=auto;html=1;shadow=0;strokeColor=#6c8ebf;fontFamily=Helvetica;fontSize=12;fontColor=default;gradientColor=#000000;opacity=70;fillColor=#dae8fc;endSize=10;width=15;endWidth=24;entryX=-0.028;entryY=0.5;entryDx=0;entryDy=0;entryPerimeter=0;" parent="1" source="iuHLrQCQOeubHeXrkh4j-6" target="iuHLrQCQOeubHeXrkh4j-25" edge="1">
          <mxGeometry relative="1" as="geometry">
            <mxPoint x="190" y="250" as="targetPoint" />
          </mxGeometry>
        </mxCell>
        <mxCell id="nMo4RdDPmyqSjO1rjjxg-3" style="edgeStyle=orthogonalEdgeStyle;shape=flexArrow;curved=1;rounded=1;sketch=0;fillStyle=hatch;orthogonalLoop=1;jettySize=auto;html=1;shadow=0;strokeColor=#3B50A1;fontFamily=Comic Sans MS;fontSize=8;fontColor=#3B50A1;endSize=11;fillColor=#DAE8FC;gradientColor=#000000;opacity=70;endWidth=24;width=17;" edge="1" parent="1" source="iuHLrQCQOeubHeXrkh4j-6">
          <mxGeometry relative="1" as="geometry">
            <mxPoint x="80" y="370" as="targetPoint" />
          </mxGeometry>
        </mxCell>
        <mxCell id="iuHLrQCQOeubHeXrkh4j-6" value="&lt;font color=&quot;#3b50a1&quot; style=&quot;font-size: 8px;&quot; face=&quot;Comic Sans MS&quot;&gt;&lt;b style=&quot;&quot;&gt;Pick up two cards from the left and compare them&lt;/b&gt;&lt;/font&gt;" style="whiteSpace=wrap;html=1;aspect=fixed;rounded=1;strokeColor=#6c8ebf;fontFamily=Helvetica;fontSize=12;fontColor=default;fillColor=#dae8fc;glass=1;direction=south;gradientColor=default;" parent="1" vertex="1">
          <mxGeometry x="40" y="210" width="80" height="80" as="geometry" />
        </mxCell>
        <mxCell id="iuHLrQCQOeubHeXrkh4j-8" style="edgeStyle=orthogonalEdgeStyle;shape=flexArrow;curved=1;orthogonalLoop=1;jettySize=auto;html=1;strokeColor=#6c8ebf;fontFamily=Helvetica;fontSize=12;fontColor=default;fillColor=#dae8fc;fillStyle=hatch;gradientColor=#000000;width=15;endSize=10;shadow=0;rounded=1;opacity=70;entryX=-0.079;entryY=0.508;entryDx=0;entryDy=0;entryPerimeter=0;endWidth=21;sketch=0;" parent="1" source="iuHLrQCQOeubHeXrkh4j-1" target="iuHLrQCQOeubHeXrkh4j-6" edge="1">
          <mxGeometry relative="1" as="geometry">
            <mxPoint x="80" y="200" as="targetPoint" />
            <Array as="points">
              <mxPoint x="80" y="170" />
            </Array>
          </mxGeometry>
        </mxCell>
        <mxCell id="iuHLrQCQOeubHeXrkh4j-31" style="edgeStyle=orthogonalEdgeStyle;shape=flexArrow;curved=1;rounded=1;sketch=0;fillStyle=hatch;orthogonalLoop=1;jettySize=auto;html=1;shadow=0;strokeColor=#6c8ebf;fontFamily=Helvetica;fontSize=12;fontColor=default;gradientColor=#000000;opacity=70;width=17;endSize=10;endWidth=22;fillColor=#DAE8FC;" parent="1" source="iuHLrQCQOeubHeXrkh4j-25" edge="1">
          <mxGeometry relative="1" as="geometry">
            <mxPoint x="457.33331298828125" y="210" as="targetPoint" />
            <Array as="points">
              <mxPoint x="389" y="240" />
              <mxPoint x="389" y="210" />
            </Array>
          </mxGeometry>
        </mxCell>
        <mxCell id="iuHLrQCQOeubHeXrkh4j-25" value="&lt;font color=&quot;#3b50a1&quot; style=&quot;font-size: 8px;&quot; face=&quot;Comic Sans MS&quot;&gt;&lt;b&gt;Are the values the same?&lt;/b&gt;&lt;/font&gt;" style="shape=callout;whiteSpace=wrap;html=1;perimeter=calloutPerimeter;rounded=1;glass=1;strokeColor=#6c8ebf;fontFamily=Helvetica;fontSize=12;fontColor=default;fillColor=#dae8fc;shadow=0;sketch=0;gradientColor=default;" parent="1" vertex="1">
          <mxGeometry x="200" y="210" width="120" height="80" as="geometry" />
        </mxCell>
        <mxCell id="iuHLrQCQOeubHeXrkh4j-34" value="" style="shape=card;whiteSpace=wrap;html=1;rounded=1;glass=1;strokeColor=#6c8ebf;fontFamily=Helvetica;fontSize=12;fontColor=default;fillColor=#dae8fc;labelBackgroundColor=default;endArrow=classic;sketch=0;fillStyle=hatch;shadow=0;gradientColor=default;opacity=80;endSize=6.78;" parent="1" vertex="1">
          <mxGeometry x="370" y="50" width="90" height="90" as="geometry" />
        </mxCell>
        <mxCell id="iuHLrQCQOeubHeXrkh4j-35" value="" style="shape=card;whiteSpace=wrap;html=1;rounded=1;glass=1;strokeColor=#6c8ebf;fontFamily=Helvetica;fontSize=12;fontColor=default;fillColor=#dae8fc;labelBackgroundColor=default;endArrow=classic;sketch=0;fillStyle=hatch;shadow=0;gradientColor=default;opacity=80;endSize=6.78;" parent="1" vertex="1">
          <mxGeometry x="470" y="160" width="90" height="90" as="geometry" />
        </mxCell>
        <mxCell id="iuHLrQCQOeubHeXrkh4j-36" value="&lt;font color=&quot;#3b50a1&quot;&gt;If the values are the same, then move both of them to the left most side&lt;/font&gt;" style="text;html=1;strokeColor=none;fillColor=none;align=center;verticalAlign=middle;whiteSpace=wrap;rounded=0;glass=1;fontFamily=Comic Sans MS;fontSize=8;fontColor=#4AC3FF;" parent="1" vertex="1">
          <mxGeometry x="485" y="190" width="60" height="30" as="geometry" />
        </mxCell>
        <mxCell id="iuHLrQCQOeubHeXrkh4j-27" style="edgeStyle=orthogonalEdgeStyle;shape=flexArrow;curved=1;rounded=1;sketch=0;fillStyle=hatch;orthogonalLoop=1;jettySize=auto;html=1;shadow=0;strokeColor=#6c8ebf;fontFamily=Helvetica;fontSize=12;fontColor=default;gradientColor=#000000;opacity=70;endWidth=23;endSize=10;width=17;fillColor=#dae8fc;" parent="1" source="iuHLrQCQOeubHeXrkh4j-25" edge="1">
          <mxGeometry relative="1" as="geometry">
            <mxPoint x="350" y="90" as="targetPoint" />
            <Array as="points">
              <mxPoint x="260" y="180" />
              <mxPoint x="260" y="180" />
            </Array>
          </mxGeometry>
        </mxCell>
        <mxCell id="nMo4RdDPmyqSjO1rjjxg-1" value="If the values are not the same, then move the least value to the left side" style="text;html=1;strokeColor=none;fillColor=none;align=center;verticalAlign=middle;whiteSpace=wrap;rounded=0;glass=1;fontFamily=Comic Sans MS;fontSize=8;fontColor=#3B50A1;" vertex="1" parent="1">
          <mxGeometry x="377.5" y="80" width="75" height="30" as="geometry" />
        </mxCell>
        <mxCell id="nMo4RdDPmyqSjO1rjjxg-2" value="No" style="text;html=1;strokeColor=none;fillColor=none;align=center;verticalAlign=middle;whiteSpace=wrap;rounded=0;glass=1;fontFamily=Comic Sans MS;fontSize=8;fontColor=#3B50A1;" vertex="1" parent="1">
          <mxGeometry x="260" y="50" width="60" height="30" as="geometry" />
        </mxCell>
        <mxCell id="nMo4RdDPmyqSjO1rjjxg-4" value="Yes" style="text;html=1;strokeColor=none;fillColor=none;align=center;verticalAlign=middle;whiteSpace=wrap;rounded=0;glass=1;fontFamily=Comic Sans MS;fontSize=8;fontColor=#3B50A1;" vertex="1" parent="1">
          <mxGeometry x="320" y="200" width="60" height="30" as="geometry" />
        </mxCell>
        <mxCell id="nMo4RdDPmyqSjO1rjjxg-7" style="edgeStyle=orthogonalEdgeStyle;shape=flexArrow;curved=1;rounded=1;sketch=0;fillStyle=hatch;orthogonalLoop=1;jettySize=auto;html=1;shadow=0;strokeColor=#3B50A1;fontFamily=Comic Sans MS;fontSize=6;fontColor=#3B50A1;endSize=10.33;fillColor=#DAE8FC;gradientColor=#000000;opacity=70;width=17;endWidth=23;" edge="1" parent="1" source="nMo4RdDPmyqSjO1rjjxg-6">
          <mxGeometry relative="1" as="geometry">
            <mxPoint x="200" y="430" as="targetPoint" />
          </mxGeometry>
        </mxCell>
        <mxCell id="nMo4RdDPmyqSjO1rjjxg-21" style="edgeStyle=orthogonalEdgeStyle;shape=flexArrow;curved=1;rounded=1;sketch=0;fillStyle=hatch;orthogonalLoop=1;jettySize=auto;html=1;shadow=0;strokeColor=#3B50A1;fontFamily=Comic Sans MS;fontSize=6;fontColor=#3B50A1;endSize=10.78;fillColor=#DAE8FC;gradientColor=#000000;opacity=70;endWidth=20;width=20;" edge="1" parent="1" source="nMo4RdDPmyqSjO1rjjxg-6">
          <mxGeometry relative="1" as="geometry">
            <mxPoint x="80" y="580" as="targetPoint" />
          </mxGeometry>
        </mxCell>
        <mxCell id="nMo4RdDPmyqSjO1rjjxg-6" value="&lt;font size=&quot;1&quot; face=&quot;Comic Sans MS&quot; color=&quot;#3b50a1&quot;&gt;&lt;b style=&quot;font-size: 6px;&quot;&gt;&amp;nbsp;Pick the card which has a higher value that you had just sorted and the card that&#39;s to the righot of it&lt;/b&gt;&lt;/font&gt;" style="whiteSpace=wrap;html=1;aspect=fixed;rounded=1;strokeColor=#6c8ebf;fontFamily=Helvetica;fontSize=12;fontColor=default;fillColor=#dae8fc;glass=1;direction=south;gradientColor=default;" vertex="1" parent="1">
          <mxGeometry x="40" y="390" width="80" height="80" as="geometry" />
        </mxCell>
        <mxCell id="nMo4RdDPmyqSjO1rjjxg-8" value="&lt;font color=&quot;#3b50a1&quot; style=&quot;font-size: 8px;&quot; face=&quot;Comic Sans MS&quot;&gt;&lt;b&gt;Are the values the same?&lt;/b&gt;&lt;/font&gt;" style="shape=callout;whiteSpace=wrap;html=1;perimeter=calloutPerimeter;rounded=1;glass=1;strokeColor=#6c8ebf;fontFamily=Helvetica;fontSize=12;fontColor=default;fillColor=#dae8fc;shadow=0;sketch=0;gradientColor=default;" vertex="1" parent="1">
          <mxGeometry x="210" y="390" width="120" height="80" as="geometry" />
        </mxCell>
        <mxCell id="nMo4RdDPmyqSjO1rjjxg-11" style="edgeStyle=orthogonalEdgeStyle;shape=flexArrow;curved=1;rounded=1;sketch=0;fillStyle=hatch;orthogonalLoop=1;jettySize=auto;html=1;shadow=0;strokeColor=#6c8ebf;fontFamily=Helvetica;fontSize=12;fontColor=default;gradientColor=#000000;opacity=70;width=17;endSize=10;endWidth=22;fillColor=#DAE8FC;" edge="1" parent="1">
          <mxGeometry relative="1" as="geometry">
            <mxPoint x="450" y="490" as="targetPoint" />
            <Array as="points">
              <mxPoint x="390" y="420" />
              <mxPoint x="390" y="490" />
            </Array>
            <mxPoint x="330" y="420" as="sourcePoint" />
          </mxGeometry>
        </mxCell>
        <mxCell id="nMo4RdDPmyqSjO1rjjxg-12" value="" style="shape=card;whiteSpace=wrap;html=1;rounded=1;glass=1;strokeColor=#6c8ebf;fontFamily=Helvetica;fontSize=12;fontColor=default;fillColor=#dae8fc;labelBackgroundColor=default;endArrow=classic;sketch=0;fillStyle=hatch;shadow=0;gradientColor=default;opacity=80;endSize=6.78;" vertex="1" parent="1">
          <mxGeometry x="462.5" y="430" width="90" height="90" as="geometry" />
        </mxCell>
        <mxCell id="nMo4RdDPmyqSjO1rjjxg-13" value="&lt;font color=&quot;#3b50a1&quot;&gt;If the values are the same, then move both of them to the left most side&lt;/font&gt;" style="text;html=1;strokeColor=none;fillColor=none;align=center;verticalAlign=middle;whiteSpace=wrap;rounded=0;glass=1;fontFamily=Comic Sans MS;fontSize=8;fontColor=#4AC3FF;" vertex="1" parent="1">
          <mxGeometry x="480" y="460" width="60" height="30" as="geometry" />
        </mxCell>
        <mxCell id="nMo4RdDPmyqSjO1rjjxg-14" style="edgeStyle=orthogonalEdgeStyle;shape=flexArrow;curved=1;rounded=1;sketch=0;fillStyle=hatch;orthogonalLoop=1;jettySize=auto;html=1;shadow=0;strokeColor=#6c8ebf;fontFamily=Helvetica;fontSize=12;fontColor=default;gradientColor=#000000;opacity=70;endWidth=23;endSize=10;width=17;fillColor=#dae8fc;" edge="1" parent="1">
          <mxGeometry relative="1" as="geometry">
            <mxPoint x="440" y="300" as="targetPoint" />
            <Array as="points">
              <mxPoint x="270" y="310" />
              <mxPoint x="320" y="310" />
              <mxPoint x="320" y="300" />
              <mxPoint x="360" y="300" />
            </Array>
            <mxPoint x="270" y="390" as="sourcePoint" />
          </mxGeometry>
        </mxCell>
        <mxCell id="nMo4RdDPmyqSjO1rjjxg-16" value="Yes" style="text;html=1;strokeColor=none;fillColor=none;align=center;verticalAlign=middle;whiteSpace=wrap;rounded=0;glass=1;fontFamily=Comic Sans MS;fontSize=8;fontColor=#3B50A1;" vertex="1" parent="1">
          <mxGeometry x="330" y="380" width="60" height="30" as="geometry" />
        </mxCell>
        <mxCell id="nMo4RdDPmyqSjO1rjjxg-19" value="" style="shape=card;whiteSpace=wrap;html=1;rounded=1;glass=1;strokeColor=#6c8ebf;fontFamily=Helvetica;fontSize=12;fontColor=default;fillColor=#dae8fc;labelBackgroundColor=default;endArrow=classic;sketch=0;fillStyle=hatch;shadow=0;gradientColor=default;opacity=80;endSize=6.78;" vertex="1" parent="1">
          <mxGeometry x="450" y="260" width="90" height="90" as="geometry" />
        </mxCell>
        <mxCell id="nMo4RdDPmyqSjO1rjjxg-20" value="If the values are not the same, then move the least value to the left side" style="text;html=1;strokeColor=none;fillColor=none;align=center;verticalAlign=middle;whiteSpace=wrap;rounded=0;glass=1;fontFamily=Comic Sans MS;fontSize=8;fontColor=#3B50A1;" vertex="1" parent="1">
          <mxGeometry x="462.5" y="290" width="75" height="30" as="geometry" />
        </mxCell>
        <mxCell id="nMo4RdDPmyqSjO1rjjxg-26" style="edgeStyle=orthogonalEdgeStyle;shape=flexArrow;curved=1;rounded=1;sketch=0;fillStyle=hatch;orthogonalLoop=1;jettySize=auto;html=1;exitX=0;exitY=0;exitDx=120;exitDy=25;exitPerimeter=0;shadow=0;strokeColor=#3B50A1;fontFamily=Comic Sans MS;fontSize=6;fontColor=#3B50A1;endSize=11.44;fillColor=#DAE8FC;gradientColor=#000000;opacity=70;width=13;" edge="1" parent="1" source="nMo4RdDPmyqSjO1rjjxg-22">
          <mxGeometry relative="1" as="geometry">
            <mxPoint x="110" y="490" as="targetPoint" />
            <Array as="points">
              <mxPoint x="230" y="615" />
              <mxPoint x="230" y="550" />
              <mxPoint x="160" y="550" />
            </Array>
          </mxGeometry>
        </mxCell>
        <mxCell id="nMo4RdDPmyqSjO1rjjxg-29" style="edgeStyle=orthogonalEdgeStyle;shape=flexArrow;curved=1;rounded=1;sketch=0;fillStyle=hatch;orthogonalLoop=1;jettySize=auto;html=1;exitX=0;exitY=0;exitDx=120;exitDy=50;exitPerimeter=0;shadow=0;strokeColor=#3B50A1;fontFamily=Comic Sans MS;fontSize=7;fontColor=#3B50A1;endSize=8.78;fillColor=#DAE8FC;gradientColor=#000000;opacity=70;width=17;" edge="1" parent="1" source="nMo4RdDPmyqSjO1rjjxg-22">
          <mxGeometry relative="1" as="geometry">
            <mxPoint x="240" y="750" as="targetPoint" />
            <Array as="points">
              <mxPoint x="140" y="690" />
              <mxPoint x="280" y="690" />
              <mxPoint x="280" y="680" />
              <mxPoint x="340" y="680" />
              <mxPoint x="340" y="750" />
            </Array>
          </mxGeometry>
        </mxCell>
        <mxCell id="nMo4RdDPmyqSjO1rjjxg-22" value="" style="shape=callout;whiteSpace=wrap;html=1;perimeter=calloutPerimeter;rounded=1;glass=1;strokeColor=#6c8ebf;fontFamily=Helvetica;fontSize=12;fontColor=default;fillColor=#dae8fc;gradientColor=default;" vertex="1" parent="1">
          <mxGeometry x="20" y="590" width="120" height="80" as="geometry" />
        </mxCell>
        <mxCell id="nMo4RdDPmyqSjO1rjjxg-24" value="&lt;font style=&quot;font-size: 7px;&quot;&gt;Repeat the command that is being circled&lt;/font&gt;" style="text;html=1;strokeColor=none;fillColor=none;align=center;verticalAlign=middle;whiteSpace=wrap;rounded=0;glass=1;fontFamily=Comic Sans MS;fontSize=6;fontColor=#3B50A1;" vertex="1" parent="1">
          <mxGeometry x="40" y="590" width="72.5" height="50" as="geometry" />
        </mxCell>
        <mxCell id="nMo4RdDPmyqSjO1rjjxg-27" value="" style="ellipse;whiteSpace=wrap;html=1;rounded=1;glass=1;fontFamily=Comic Sans MS;fontSize=6;sketch=1;shadow=0;fillColor=none;" vertex="1" parent="1">
          <mxGeometry x="10" y="375" width="140" height="110" as="geometry" />
        </mxCell>
        <mxCell id="nMo4RdDPmyqSjO1rjjxg-31" value="SOTING COMPLETE!" style="text;html=1;strokeColor=none;fillColor=none;align=center;verticalAlign=middle;whiteSpace=wrap;rounded=0;glass=1;fontFamily=Comic Sans MS;fontSize=18;fontColor=#3B50A1;" vertex="1" parent="1">
          <mxGeometry x="150" y="730" width="60" height="30" as="geometry" />
        </mxCell>
      </root>
    </mxGraphModel>
  </diagram>
</mxfile>
